<?xml version="1.0" encoding="UTF-8"?>
<svg id="Layer_1" xmlns="http://www.w3.org/2000/svg" version="1.1" viewBox="0 0 48 48">
  <!-- Generator: Adobe Illustrator 30.3.0, SVG Export Plug-In . SVG Version: 2.1.3 Build 182)  -->
  <defs>
    <style>
      .st0, .st1 {
        fill: #ae2731;
      }

      .st1 {
        font-family: Montserrat-Bold, Montserrat;
        font-size: 6.82px;
        font-weight: 700;
      }
    </style>
  </defs>
  <polygon class="st0" points="30.26 29.19 27.89 29.23 21.13 18.16 21.16 9.74 29.16 22.98 37.56 9.76 42 9.77 41.99 38.26 37.06 31.7 36.98 18.04 30.26 29.19"/>
  <path class="st0" d="M4.85,29.72l2.95-3.54c1.54,2.2,4.16,3.33,6.44,1.83.63-.65,1.04-1.53,1.04-2.51l.02-11.48H4.52s2.75-4.26,2.75-4.26h13.35s-.01,15.45-.01,15.45c0,1.33-.31,2.54-.75,3.74-1.71,3.98-6.36,4.67-10.36,3.77-1.82-.52-3.35-1.39-4.64-3Z"/>
  <text class="st1" transform="translate(10.87 38.86)"><tspan x="0" y="0">STUDIO</tspan></text>
</svg>